<?xml version="1.0" standalone="no"?>
<!DOCTYPE svg PUBLIC "-//W3C//DTD SVG 20010904//EN"
 "http://www.w3.org/TR/2001/REC-SVG-20010904/DTD/svg10.dtd">
<svg version="1.0" xmlns="http://www.w3.org/2000/svg"
 width="700.000000pt" height="700.000000pt" viewBox="0 0 700.000000 700.000000"
 preserveAspectRatio="xMidYMid meet">
<metadata>
Created by potrace 1.11, written by Peter Selinger 2001-2013
</metadata>
<g transform="translate(0.000000,700.000000) scale(0.100000,-0.100000)"
fill="#000000" stroke="none">
<path d="M1343 6978 c-44 -12 -83 -61 -83 -105 0 -20 21 -115 46 -212 25 -97
47 -183 49 -191 18 -84 100 -388 108 -401 15 -25 77 -55 109 -53 33 1 72 26
93 58 22 33 20 78 -4 171 -12 44 -23 87 -25 95 -2 8 -27 105 -56 215 -28 110
-53 207 -55 215 -16 74 -39 147 -51 165 -24 36 -83 56 -131 43z"/>
<path d="M4960 6853 c0 -5 -5 -39 -11 -78 -5 -38 -12 -86 -15 -105 -2 -19 -6
-46 -9 -60 -2 -14 -7 -45 -10 -70 -3 -25 -7 -58 -9 -75 -13 -105 -34 -158 -82
-209 -78 -82 -223 -90 -316 -16 -21 16 -148 180 -324 418 -2 3 -151 -104 -164
-118 -3 -3 -58 -45 -123 -92 -110 -82 -119 -86 -155 -80 -53 9 -362 9 -457 -1
-163 -16 -377 -68 -545 -132 -153 -58 -409 -197 -495 -267 -11 -9 -49 -40 -85
-68 -66 -52 -196 -175 -260 -246 -330 -366 -538 -892 -544 -1371 -1 -35 -5
-63 -11 -64 -5 -1 -40 -1 -77 -1 -38 -1 -68 -5 -68 -9 0 -12 0 -10 -15 -77
-15 -65 -53 -242 -61 -286 -12 -70 -58 -116 -117 -118 -42 -1 -51 4 -239 134
-86 59 -161 108 -165 108 -5 0 -88 -80 -185 -177 l-177 -178 110 -160 c134
-193 144 -212 135 -258 -13 -68 -48 -94 -153 -112 -18 -3 -63 -12 -100 -21
-38 -9 -77 -18 -88 -20 -11 -2 -48 -9 -83 -15 l-62 -13 0 -243 c0 -224 1 -243
18 -244 9 0 24 -2 32 -4 8 -2 91 -20 185 -40 191 -42 218 -52 241 -97 26 -51
14 -95 -57 -197 -35 -50 -90 -128 -121 -174 l-58 -82 181 -181 181 -181 147
101 c80 56 162 112 182 124 65 39 143 23 173 -37 8 -14 24 -73 36 -131 12 -58
23 -112 25 -120 18 -88 35 -170 35 -174 0 -3 109 -4 242 -3 205 2 242 4 244
17 1 8 7 35 12 60 5 25 23 110 40 190 17 80 33 152 36 160 11 27 71 60 110 60
38 0 113 -45 318 -192 38 -26 73 -48 78 -48 6 0 93 83 195 184 164 165 185
183 191 163 4 -12 8 -161 9 -332 1 -170 5 -326 10 -345 20 -91 102 -195 188
-239 l42 -22 -1 -322 c-1 -337 4 -386 44 -463 30 -59 65 -97 120 -133 91 -58
115 -61 457 -58 l310 2 60 29 c79 39 158 121 186 194 22 55 23 70 24 405 1
191 4 348 6 350 2 1 22 11 43 22 45 23 102 75 135 122 51 74 54 97 56 433 3
280 5 324 24 398 45 181 145 317 323 440 156 108 252 189 368 308 204 211 360
454 459 714 58 152 54 145 76 124 10 -11 83 -105 162 -211 l144 -192 282 211
c155 116 285 213 288 217 4 3 -62 98 -147 211 -97 129 -158 220 -165 245 -35
127 26 249 147 294 55 20 83 20 239 -2 61 -9 133 -19 160 -23 28 -3 59 -8 70
-10 11 -2 41 -7 66 -10 l47 -6 7 54 c4 29 9 62 11 73 2 11 7 40 10 65 3 25 12
86 19 135 8 50 16 111 19 137 8 62 15 112 26 177 6 30 10 58 10 62 0 8 -29 16
-95 24 -27 4 -61 8 -74 10 -13 2 -45 7 -70 11 -25 3 -57 8 -71 10 -14 2 -61 9
-105 15 -96 13 -133 27 -179 70 -76 69 -100 184 -56 274 17 35 74 96 125 134
6 4 25 18 44 31 19 14 42 30 50 37 82 64 216 163 224 166 6 2 -87 134 -207
294 l-218 291 -202 -150 c-110 -83 -216 -157 -235 -165 -87 -37 -210 -3 -271
74 -60 77 -64 135 -25 373 3 14 7 50 11 80 3 30 8 57 9 60 2 3 6 35 10 72 l7
66 -29 6 c-15 3 -66 10 -113 16 -47 6 -96 13 -110 15 -32 4 -111 17 -130 20
-8 1 -42 6 -75 10 -32 4 -66 8 -75 10 -99 18 -180 26 -180 18z m293 -1134
c559 -139 812 -798 492 -1278 -65 -99 -75 -105 -76 -45 0 27 -2 58 -4 69 -2
11 -6 40 -10 65 -50 366 -235 782 -475 1065 -37 44 -81 94 -98 112 -17 17 -28
34 -25 37 9 9 113 -4 196 -25z m-3729 -2350 c2 -2 24 -47 49 -99 104 -216 223
-384 397 -562 l85 -87 -27 -66 c-34 -86 -68 -137 -137 -206 -115 -114 -258
-171 -426 -170 -373 2 -648 340 -581 711 10 51 16 69 43 129 87 193 264 325
470 349 66 8 121 8 127 1z"/>
<path d="M313 6293 c-34 -17 -63 -65 -63 -103 0 -51 31 -85 158 -175 70 -49
132 -93 137 -98 6 -5 102 -74 215 -155 200 -143 206 -147 257 -147 59 0 98 27
111 79 21 79 0 104 -208 250 -74 53 -139 99 -145 103 -5 5 -88 64 -183 132
-187 133 -218 146 -279 114z"/>
<path d="M680 5104 c-96 -25 -184 -47 -194 -49 -10 -2 -103 -25 -205 -51 -153
-38 -191 -51 -214 -73 -53 -51 -45 -139 16 -183 38 -27 68 -26 219 13 68 17
130 32 138 34 155 34 498 130 513 143 45 39 54 109 21 159 -38 59 -87 60 -294
7z"/>
<path d="M5903 2529 c-47 -6 -68 -20 -90 -62 -33 -65 5 -148 76 -166 57 -14
662 -8 688 7 11 6 31 28 43 47 24 39 22 88 -6 130 -29 45 -59 49 -373 49 -163
1 -315 -2 -338 -5z"/>
<path d="M5722 1845 c-57 -25 -88 -105 -61 -158 14 -27 53 -63 184 -168 11
-10 41 -34 66 -55 251 -213 341 -284 365 -290 64 -16 134 28 149 95 11 53 -16
91 -136 191 -63 52 -119 99 -125 105 -6 5 -30 26 -54 45 -24 19 -48 40 -54 45
-30 27 -185 154 -211 173 -38 28 -82 34 -123 17z"/>
<path d="M5138 1554 c-58 -31 -61 -47 -61 -405 0 -299 2 -329 19 -357 20 -34
68 -62 106 -62 36 0 88 37 102 73 11 24 14 109 13 352 0 176 -4 331 -9 345
-20 58 -110 87 -170 54z"/>
</g>
</svg>
